<svg width="529" height="73" viewBox="0 0 529 73" fill="none" xmlns="http://www.w3.org/2000/svg">
<path d="M48.12 5.27999L46.584 13.824H28.824L18.552 72H7.608L17.88 13.824H0.0240004L1.56 5.27999H48.12ZM66.0195 28.416C68.1955 25.216 70.7555 22.72 73.6995 20.928C76.7075 19.136 80.0355 18.24 83.6835 18.24L81.6675 29.568H78.8835C74.6595 29.568 71.2675 30.624 68.7075 32.736C66.1475 34.848 64.3555 38.496 63.3315 43.68L58.3395 72H47.3955L56.7075 19.104H67.6515L66.0195 28.416ZM85.2953 45.312C86.2553 40 88.1753 35.296 91.0553 31.2C93.9993 27.104 97.5833 23.936 101.807 21.696C106.031 19.392 110.447 18.24 115.055 18.24C119.215 18.24 122.703 19.072 125.519 20.736C128.335 22.336 130.447 24.352 131.855 26.784L133.199 19.104H144.239L134.927 72H123.887L125.327 64.128C123.023 66.624 120.111 68.704 116.591 70.368C113.135 72.032 109.359 72.864 105.263 72.864C101.295 72.864 97.7433 71.968 94.6073 70.176C91.5353 68.384 89.1033 65.856 87.3113 62.592C85.5833 59.264 84.7193 55.456 84.7193 51.168C84.7193 49.248 84.9113 47.296 85.2953 45.312ZM128.591 45.504C128.847 44.288 128.975 42.976 128.975 41.568C128.975 37.28 127.695 33.92 125.135 31.488C122.639 28.992 119.503 27.744 115.727 27.744C112.911 27.744 110.159 28.448 107.471 29.856C104.783 31.2 102.447 33.216 100.463 35.904C98.4793 38.528 97.1673 41.664 96.5273 45.312C96.2713 46.528 96.1432 47.84 96.1432 49.248C96.1432 53.6 97.3913 57.056 99.8873 59.616C102.447 62.112 105.615 63.36 109.391 63.36C112.207 63.36 114.959 62.656 117.647 61.248C120.335 59.84 122.671 57.792 124.655 55.104C126.639 52.352 127.951 49.152 128.591 45.504ZM171.478 62.208L194.038 19.104H205.846L176.374 72H163.126L152.374 19.104H164.086L171.478 62.208ZM236.87 18.24C243.462 18.24 248.71 20.096 252.614 23.808C256.582 27.52 258.566 32.512 258.566 38.784C258.566 40.256 258.406 42.016 258.086 44.064C257.83 45.472 257.382 47.2 256.742 49.248H216.326C216.262 49.696 216.23 50.368 216.23 51.264C216.23 55.04 217.382 58.048 219.686 60.288C222.054 62.528 225.126 63.648 228.902 63.648C234.854 63.648 239.43 61.184 242.63 56.256H254.438C252.006 61.12 248.422 65.12 243.686 68.256C238.95 71.328 233.478 72.864 227.27 72.864C222.854 72.864 218.982 72 215.654 70.272C212.326 68.544 209.734 66.08 207.878 62.88C206.022 59.616 205.094 55.808 205.094 51.456C205.094 49.6 205.286 47.616 205.67 45.504C206.63 40.064 208.582 35.296 211.526 31.2C214.47 27.04 218.118 23.84 222.47 21.6C226.886 19.36 231.686 18.24 236.87 18.24ZM247.142 41.376C247.27 40.224 247.334 39.392 247.334 38.88C247.334 35.36 246.15 32.576 243.782 30.528C241.478 28.48 238.47 27.456 234.758 27.456C230.854 27.456 227.334 28.704 224.198 31.2C221.062 33.696 218.918 37.088 217.766 41.376H247.142ZM287.384 0.959999L274.808 72H263.864L276.44 0.959999H287.384Z" fill="black"/>
<path d="M364.441 5.27999V72H353.497V26.304L333.145 72H325.561L305.113 26.304V72H294.169V5.27999H305.977L329.401 57.6L352.729 5.27999H364.441ZM375.177 45.312C375.177 40 376.265 35.296 378.441 31.2C380.681 27.104 383.689 23.936 387.465 21.696C391.305 19.392 395.529 18.24 400.137 18.24C404.297 18.24 407.913 19.072 410.985 20.736C414.121 22.336 416.617 24.352 418.473 26.784V19.104H429.513V72H418.473V64.128C416.617 66.624 414.089 68.704 410.889 70.368C407.689 72.032 404.041 72.864 399.945 72.864C395.401 72.864 391.241 71.712 387.465 69.408C383.689 67.04 380.681 63.776 378.441 59.616C376.265 55.392 375.177 50.624 375.177 45.312ZM418.473 45.504C418.473 41.856 417.705 38.688 416.169 36C414.697 33.312 412.745 31.264 410.313 29.856C407.881 28.448 405.257 27.744 402.441 27.744C399.625 27.744 397.001 28.448 394.569 29.856C392.137 31.2 390.153 33.216 388.617 35.904C387.145 38.528 386.409 41.664 386.409 45.312C386.409 48.96 387.145 52.16 388.617 54.912C390.153 57.664 392.137 59.776 394.569 61.248C397.065 62.656 399.689 63.36 402.441 63.36C405.257 63.36 407.881 62.656 410.313 61.248C412.745 59.84 414.697 57.792 416.169 55.104C417.705 52.352 418.473 49.152 418.473 45.504ZM456.656 28.032V57.312C456.656 59.296 457.104 60.736 458 61.632C458.96 62.464 460.56 62.88 462.8 62.88H469.52V72H460.88C455.952 72 452.176 70.848 449.552 68.544C446.928 66.24 445.616 62.496 445.616 57.312V28.032H439.376V19.104H445.616V5.952H456.656V19.104H469.52V28.032H456.656ZM528.086 44.256C528.086 46.24 527.958 48.032 527.702 49.632H487.286C487.606 53.856 489.174 57.248 491.99 59.808C494.806 62.368 498.262 63.648 502.358 63.648C508.246 63.648 512.406 61.184 514.838 56.256H526.646C525.046 61.12 522.134 65.12 517.91 68.256C513.75 71.328 508.566 72.864 502.358 72.864C497.302 72.864 492.758 71.744 488.726 69.504C484.758 67.2 481.622 64 479.318 59.904C477.078 55.744 475.958 50.944 475.958 45.504C475.958 40.064 477.046 35.296 479.222 31.2C481.462 27.04 484.566 23.84 488.534 21.6C492.566 19.36 497.174 18.24 502.358 18.24C507.35 18.24 511.798 19.328 515.702 21.504C519.606 23.68 522.646 26.752 524.822 30.72C526.998 34.624 528.086 39.136 528.086 44.256ZM516.662 40.8C516.598 36.768 515.158 33.536 512.342 31.104C509.526 28.672 506.038 27.456 501.878 27.456C498.102 27.456 494.87 28.672 492.182 31.104C489.494 33.472 487.894 36.704 487.382 40.8H516.662Z" fill="#FE5401"/>
</svg>
